<?xml version="1.0" encoding="utf-8"?>
<!-- Generator: Adobe Illustrator 22.1.0, SVG Export Plug-In . SVG Version: 6.00 Build 0)  -->
<svg version="1.1" id="Capa_1" xmlns="http://www.w3.org/2000/svg" xmlns:xlink="http://www.w3.org/1999/xlink" x="0px" y="0px"
	 viewBox="0 0 300 300" style="enable-background:new 0 0 300 300;" xml:space="preserve">
<g>
	<path d="M272.1,172.3l-12.6-12.6c-5.2-5.2-13.5-5.1-18.7,0l-68.2,68.2l-9.4,34.5l-2.3,2.3c-1.7,1.7-1.7,4.5,0,6.2l0,0.1l0.1,0
		c0.9,0.8,2,1.3,3.1,1.3c1.1,0,2.3-0.4,3.1-1.3l2.3-2.3l34.4-9.4l68.2-68.2C277.3,185.8,277.3,177.4,272.1,172.3z M182.9,230.1
		l45.4-45.4l18.8,18.8l-45.4,45.4L182.9,230.1z M178.9,238.6l14.3,14.3l-19.6,5.4L178.9,238.6z M265.9,184.7l-12.6,12.6l-18.8-18.8
		l12.6-12.6c1.7-1.7,4.5-1.7,6.2,0l12.6,12.6C267.6,180.2,267.6,183,265.9,184.7z"/>
	<path d="M117,78.3c-2.4,0-4.4,2-4.4,4.4c0,2.4,2,4.4,4.4,4.4h110.3c2.4,0,4.4-2,4.4-4.4c0-2.4-2-4.4-4.4-4.4H117z"/>
	<path d="M231.7,151.3c0-2.4-2-4.4-4.4-4.4H117c-2.4,0-4.4,2-4.4,4.4c0,2.4,2,4.4,4.4,4.4h110.3
		C229.7,155.8,231.7,153.8,231.7,151.3z"/>
	<path d="M138.7,262.1H81.9c-24.8,0-45.1-20.2-45.1-45.1V85.7c0-24.8,20.2-45.1,45.1-45.1h131.3c24.8,0,45.1,20.2,45.1,45.1v52.4
		c0,2.4,2,4.4,4.4,4.4s4.4-2,4.4-4.4V85.7c0-29.7-24.2-53.9-53.9-53.9H81.9C52.2,31.8,28,56,28,85.7V217c0,29.7,24.2,53.9,53.9,53.9
		h56.8c2.4,0,4.4-2,4.4-4.4C143.1,264,141.2,262.1,138.7,262.1z"/>
	<path d="M117,112.6c-2.4,0-4.4,2-4.4,4.4c0,2.4,2,4.4,4.4,4.4h110.3c2.4,0,4.4-2,4.4-4.4c0-2.4-2-4.4-4.4-4.4H117z"/>
	<path d="M69.3,78.3c-2.4,0-4.4,2-4.4,4.4c0,2.4,2,4.4,4.4,4.4h19.4c2.4,0,4.4-2,4.4-4.4c0-2.4-2-4.4-4.4-4.4H69.3z"/>
	<path d="M93.1,151.3c0-2.4-2-4.4-4.4-4.4H69.3c-2.4,0-4.4,2-4.4,4.4c0,2.4,2,4.4,4.4,4.4h19.4C91.1,155.8,93.1,153.8,93.1,151.3z"
		/>
	<path d="M69.3,112.6c-2.4,0-4.4,2-4.4,4.4c0,2.4,2,4.4,4.4,4.4h19.4c2.4,0,4.4-2,4.4-4.4c0-2.4-2-4.4-4.4-4.4H69.3z"/>
</g>
</svg>
